<?xml version="1.0" encoding="utf-8"?>
<svg xmlns="http://www.w3.org/2000/svg" fill="none" height="auto" overflow="visible" preserveAspectRatio="xMidYMid meet" style="display: block;" viewBox="0 0 148.656 30.0455" width="auto">
<g id="Group 517">
<g id="Group 518">
<path d="M128.39 6.1758V23.6661H130.099V19.7322L132.557 17.2443L136.834 23.6661H138.752L133.724 16.0803L138.398 11.3301H136.273L130.099 17.6924V6.1758H128.39Z" fill="var(--fill-0, white)" id="Path 375"/>
<g id="Group 519">
<g id="Group 518-2">
<path d="M105.167 6.27137L103.149 16.7289L102.315 21.6372H101.835L98.0372 7.57013C97.7837 6.63483 96.8214 6.08337 95.8887 6.33717C95.2878 6.5001 94.8184 6.9701 94.6572 7.57327L90.8829 21.6388H90.379L89.545 16.7022L87.5029 6.27293H85.5844L88.8267 22.2608C88.9941 23.077 89.7108 23.6629 90.5433 23.6645H91.8828L96.1281 8.27513H96.5663L96.6085 8.4271L100.812 23.6645H102.131C102.962 23.6614 103.678 23.077 103.847 22.2623L107.112 6.27137H105.168H105.167Z" fill="var(--fill-0, white)" id="Path 376"/>
<path d="M83.511 10.9635H81.0152V23.6332H83.511V10.9635Z" fill="var(--fill-0, white)" id="Rectangle 349"/>
<path d="M51.6045 6.1006H48.6798L43.8273 17.3132H43.4737L43.4377 17.2302L38.6165 6.1006H35.6934C35.1849 6.1006 34.7733 6.5142 34.7717 7.02493V23.6316H37.6166L37.3975 10.1739H37.7965L42.8196 21.2847C43.0308 21.7485 43.577 21.9553 44.0417 21.7438C44.2451 21.6513 44.4079 21.4884 44.5002 21.2847L49.5248 10.1739H49.9004L49.6813 23.6316H52.5261V7.02493C52.5261 6.5142 52.113 6.10217 51.6029 6.1006" fill="var(--fill-0, white)" id="Path 377"/>
<path d="M75.0642 17.2897L78.9574 10.9463H76.0891L73.2834 15.6369H72.9548L70.437 11.4288C70.2586 11.1296 69.9363 10.9479 69.5889 10.9463H67.2323L71.2445 17.2897H71.2429L67.3496 23.6316H70.2179L73.0236 18.941H73.3523L75.87 23.1491C76.05 23.4467 76.3708 23.63 76.7197 23.63H79.0764L75.0642 17.2882H75.0657L75.0642 17.2897Z" fill="var(--fill-0, white)" id="Path 378"/>
<path d="M141.273 14.6201C141.273 13.5344 142.192 12.7166 143.847 12.7166C145.503 12.7166 146.521 13.6598 146.601 15.0478H148.437C148.318 12.8952 146.62 11.222 143.846 11.222C141.071 11.222 139.434 12.6806 139.434 14.6201C139.434 18.9786 146.819 17.52 146.819 20.6346C146.819 21.7375 145.881 22.5725 144.005 22.5725C142.129 22.5725 141.073 21.6294 140.93 20.1536H139.096C139.236 22.4315 141.032 24.0671 143.986 24.0671C146.941 24.0671 148.656 22.6086 148.656 20.5985C148.656 16.0803 141.271 17.6454 141.271 14.6201" fill="var(--fill-0, white)" id="Path 379"/>
<path d="M112.804 11.0889C109.312 11.0889 106.47 14.0013 106.47 17.5811C106.47 21.161 109.312 24.0718 112.804 24.0718C116.297 24.0718 119.139 21.1578 119.139 17.5796C119.139 14.0013 116.297 11.0889 112.804 11.0889ZM117.494 17.6908C117.433 20.2836 115.285 22.3375 112.693 22.2764C110.103 22.2153 108.052 20.0643 108.113 17.4699C108.174 14.8771 110.323 12.8232 112.914 12.8843C115.472 12.9172 117.522 15.0165 117.496 17.5796V17.6908" fill="var(--fill-0, white)" id="Path 380"/>
<path d="M60.8416 10.658C57.1079 10.5938 54.0284 13.572 53.9642 17.3117C53.9 21.0497 56.8748 24.1329 60.61 24.1972C64.3436 24.2614 67.4232 21.2832 67.4873 17.5435V17.4276C67.5155 13.7224 64.5424 10.6941 60.8416 10.658ZM65.3404 17.4276V17.5075C65.2966 19.9938 63.2467 21.9741 60.7618 21.9302C58.2784 21.8863 56.3005 19.834 56.3443 17.3461C56.3881 14.8912 58.3879 12.9234 60.8416 12.9234H60.9276C63.386 12.9532 65.3592 14.9648 65.3435 17.4276" fill="var(--fill-0, white)" id="Path 381"/>
<path d="M124.808 11.479C123.919 11.4492 123.046 11.7124 122.323 12.2294C122.192 11.8565 121.84 11.6059 121.445 11.6059H120.672V23.6661H122.381V16.3889C122.381 13.1898 124.145 13.1898 124.808 13.1898H127.133V11.479H124.81H124.808Z" fill="var(--fill-0, white)" id="Path 382"/>
</g>
</g>
</g>
<g id="Group 686">
<g id="Group 686-2">
<path d="M15.005 0C6.71775 0 0 6.7257 0 15.0228C0 23.3198 6.71775 30.0455 15.005 30.0455C23.2923 30.0455 30.01 23.3198 30.01 15.0228C30.0006 6.7304 23.2891 0.0094 15.005 0ZM26.4062 15.0228C26.4062 18.695 23.4315 21.6733 19.7636 21.6733C16.0957 21.6733 13.121 18.695 13.121 15.0228C13.121 11.3505 16.0957 8.37227 19.7636 8.37227C23.43 8.37697 26.4016 11.3521 26.4062 15.0228ZM19.7652 6.30583C14.9565 6.30583 11.0585 10.2068 11.0585 15.0212C11.0585 19.8356 14.9549 23.7381 19.7636 23.7381C20.7948 23.7381 21.8182 23.5548 22.7853 23.1961C18.2755 26.1837 12.1993 24.9476 9.21519 20.4325C6.23109 15.9173 7.46573 9.83397 11.9755 6.84633C15.2522 4.67493 19.5085 4.67493 22.7853 6.84633C21.8182 6.48757 20.7964 6.30427 19.7652 6.30427M2.06399 15.0228C2.0593 7.8725 7.84442 2.07113 14.9862 2.06643C17.3992 2.06487 19.7652 2.7401 21.8166 4.0138C15.7436 1.5604 8.83494 4.50103 6.38601 10.5797C3.93551 16.6599 6.87267 23.5768 12.9441 26.0286C15.7905 27.1785 18.9702 27.1785 21.8166 26.0286C15.7483 29.7996 7.77713 27.9321 4.00906 21.8581C2.73686 19.8058 2.06243 17.437 2.06399 15.0212" fill="var(--fill-0, white)" id="Path 471"/>
</g>
</g>
</g>
</svg>